<svg viewBox="0 0 14 14" xmlns="http://www.w3.org/2000/svg" fill="#d82228">
	<path d="m6.36 12.976c-0.46536-0.059-1.0009-0.1828-1.3911-0.3225-1.6507-0.5912-3.0312-1.9747-3.6037-3.6115-0.17273-0.4939-0.33905-1.2698-0.33905-1.5817v-0.2195h5.9738 5.9738v0.2231c0 0.1227-0.02371 0.3593-0.0527 0.5257l-0.0527 0.3026h-0.9987-0.9987v0.2151 0.215h0.43012 0.43011v0.2151 0.2151h-0.86023-0.86023v0.215 0.2151h-0.43011-0.43012v0.215 0.2151h0.64517 0.64517v0.215 0.2151h0.43011 0.43012v0.2151 0.215h-0.21506-0.21506v0.2151 0.215h-0.64517-0.64517v0.2151 0.215h-0.21506-0.21506v0.2151 0.2151h-0.64517-0.64517v0.215 0.2151h0.21506c0.2054 0 0.21506 0.01 0.21506 0.1384 0 0.1327-0.01277 0.1407-0.30228 0.1911-0.43137 0.075-1.2428 0.1016-1.628 0.053zm-5.3338-6.4228c0-0.2841 0.12411-0.9186 0.27142-1.3877 0.28483-0.907 0.7667-1.6924 1.47-2.3963 1.7078-1.709 4.1434-2.2222 6.4188-1.3525l0.39427 0.1507v0.3516 0.3516h-0.21506-0.21506v0.2151 0.215h0.43012 0.43011v0.2151 0.2151h-0.21506-0.21506v0.215 0.2151h0.43011 0.43012v0.215 0.2151h0.21506 0.21506v0.215 0.2151h-0.64517-0.64517v0.2151 0.215h0.86023 0.86023v0.2151 0.215h-0.43012-0.43011v0.2151 0.215h1.2138 1.2138l0.0527 0.3026c0.02898 0.1665 0.0527 0.403 0.0527 0.5257v0.2231h-5.9738-5.9738v-0.2097zm4.5582-1.004c0.34295-0.1678 0.65621-0.4821 0.82694-0.8298 0.11743-0.2392 0.13469-0.3294 0.13469-0.7044 0-0.3731-0.01825-0.4697-0.13761-0.7281-0.16679-0.3611-0.49791-0.686-0.87946-0.863-0.22615-0.1048-0.3392-0.1263-0.65559-0.1242-0.53025 0-0.87006 0.1404-1.2225 0.4928-0.35277 0.3528-0.48958 0.6924-0.4924 1.2225-0.0025 0.4791 0.15381 0.8586 0.4878 1.1841 0.39735 0.3872 0.73654 0.5158 1.3054 0.4946 0.28211-0.01 0.42587-0.043 0.63272-0.1445z" />
</svg>
