<svg enable-background="new 0 0 24 24" viewBox="0 0 24 24" xmlns="http://www.w3.org/2000/svg" fill="#ffff00">
	<g>
		<circle cx="12" cy="15" r="2" />
		<path d="m15.686 6.7982c1.2038-0.13947 1.8878-0.30151 1.9352-0.31335 0.22266-0.055664 0.37891-0.25537 0.37891-0.48486 0-3.3086-2.6914-6-6-6-1.5375 0-2.9372 0.58618-4 1.5405v-1.0405c0-0.27637-0.22363-0.5-0.5-0.5s-0.5 0.22363-0.5 0.5v2.1904c-0.63055 0.94952-1 2.0868-1 3.3096 0 0.22949 0.15625 0.4292 0.37891 0.48486 0.047424 0.011841 0.73138 0.17389 1.9352 0.31335-3.1278 1.4116-5.3141 4.5534-5.3141 8.2018 0 4.9624 4.0376 9 9 9s9-4.0376 9-9c0-3.6484-2.1863-6.7902-5.3141-8.2018zm1.3646 8.7018h-2.1011c-0.21204 1.2524-1.197 2.2374-2.4495 2.4495v2.1011c1.2302 0.20831 2.2046 1.163 2.4395 2.3826-0.31287 0.12421-0.63599 0.22626-0.96661 0.31055-0.12677-0.98169-0.95795-1.7437-1.9728-1.7437-1.0151 0-1.8466 0.76251-1.9741 1.7434-0.3302-0.08429-0.65295-0.18622-0.96539-0.31024 0.23486-1.2196 1.2092-2.1743 2.4395-2.3826v-2.1011c-1.2524-0.21204-2.2374-1.197-2.4495-2.4495h-2.1011c-0.20831 1.2302-1.163 2.2046-2.3826 2.4395-0.12421-0.31287-0.22626-0.63599-0.31055-0.96667 0.98151-0.12677 1.7437-0.95837 1.7437-1.9728 0-1.0151-0.76251-1.8466-1.7434-1.9741 0.08429-0.3302 0.18622-0.65295 0.31024-0.96539 1.2196 0.23486 2.1743 1.2092 2.3826 2.4395h2.1011c0.21204-1.2524 1.197-2.2374 2.4495-2.4495v-2.1011c-1.2302-0.20831-2.2046-1.163-2.4395-2.3826 0.31287-0.12421 0.63599-0.22626 0.96661-0.31055 0.12677 0.98169 0.95795 1.7437 1.9728 1.7437 1.0151 0 1.8466-0.76251 1.9741-1.7434 0.3302 0.08429 0.65295 0.18622 0.96539 0.31024-0.23486 1.2196-1.2092 2.1743-2.4395 2.3826v2.1011c1.2524 0.21204 2.2374 1.197 2.4495 2.4495h2.1011c0.20831-1.2302 1.163-2.2046 2.3826-2.4395 0.12421 0.31287 0.22626 0.63599 0.31055 0.96667-0.98151 0.12677-1.7437 0.95837-1.7437 1.9728 0 1.0151 0.76251 1.8466 1.7434 1.9741-0.08429 0.3302-0.18622 0.65295-0.31024 0.96539-1.2196-0.23486-2.1743-1.2092-2.3826-2.4395zm-3.5505-11.5c0.27612 0 0.5 0.22382 0.5 0.5 0 0.27612-0.22388 0.5-0.5 0.5s-0.5-0.22388-0.5-0.5c0-0.27618 0.22388-0.5 0.5-0.5zm-1.5-2c0.55127 0 1 0.44873 1 1s-0.44873 1-1 1-1-0.44873-1-1 0.44873-1 1-1z" />
	</g>
</svg>
