<svg viewBox="0 0 14 14" xmlns="http://www.w3.org/2000/svg" fill="#29e52d">
	<path d="m7.2082 9.1547 0.82897-1.21-0.53208 1.4634 1.6495 0.23967-1.6495 0.23941 0.6386 1.2506s-0.7968-0.83767-0.90939-0.95579c0.046405 1.8135 0.057743 2.2596 0.057743 2.2596s4.071-1.8892 1.8093-6.0667c0 0 2.8204-3.1131 0.26604-5.0289 0 0 4.3637 2.6343 1.5965 7.1575 0 0 2.2881-2.2351 1.0908-4.4966 0 0 2.0753 2.927-0.45245 6.1463 0 0 0.69186-0.42582 1.3038-2.049 0 0-0.44639 4.832-5.8523 4.8952v5.3e-4h-0.10758v-5.3e-4c-5.4057-0.06328-5.8521-4.8952-5.8521-4.8952 0.61197 1.6231 1.3036 2.049 1.3036 2.049-2.5278-3.2196-0.45219-6.1463-0.45219-6.1463-1.1973 2.2617 1.0911 4.4966 1.0911 4.4966-2.7672-4.5235 1.5962-7.1575 1.5962-7.1575-2.5544 1.9158 0.26604 5.0289 0.26604 5.0289-2.2617 4.1775 1.8093 6.0667 1.8093 6.0667s0.011338-0.44638 0.057743-2.2596l-0.90912 0.95579 0.6386-1.2506-1.6495-0.23941 1.6495-0.23967-0.53208-1.4634 0.82897 1.21c0.059325-2.3163 0.20619-8.0634 0.20698-8.0906l2.636e-4 -0.0641 5.274e-4 0.0264 7.91e-4 -0.0264 2.636e-4 0.0641c0.00132 0.0453 0.14792 5.7796 0.20724 8.0906z" />
</svg>
